{
  "accessors": [
    {
      "bufferView": 2,
      "componentType": 5126,
      "count": 177,
      "max": [
        3000.0,
        1.6653345369377348e-12,
        2500.0
      ],
      "min": [
        -2999.9990234375,
        -2999.998779296875,
        -2500.0
      ],
      "type": "VEC3"
    },
    {
      "bufferView": 2,
      "byteOffset": 2124,
      "componentType": 5126,
      "count": 177,
      "max": [
        0.9807852506637573,
        1.0,
        1.0
      ],
      "min": [
        -0.9807853102684021,
        -1.0,
        -1.0
      ],
      "type": "VEC3"
    },
    {
      "bufferView": 3,
      "componentType": 5126,
      "count": 177,
      "max": [
        0.8751604557037354,
        0.9964897632598877,
        1.0,
        1.0
      ],
      "min": [
        -0.8270967602729797,
        -0.9995245933532715,
        -1.0,
        1.0
      ],
      "type": "VEC4"
    },
    {
      "bufferView": 1,
      "componentType": 5126,
      "count": 177,
      "max": [
        0.9990483522415161,
        0.9168938398361206
      ],
      "min": [
        0.0009765923023223877,
        0.003735750913619995
      ],
      "type": "VEC2"
    },
    {
      "bufferView": 0,
      "componentType": 5125,
      "count": 636,
      "type": "SCALAR"
    }
  ],
  "asset": {
    "extras": {
      "author": "Michael Wille (https://sketchfab.com/TheGreatWille)",
      "license": "CC-BY-4.0 (http://creativecommons.org/licenses/by/4.0/)",
      "source": "https://sketchfab.com/3d-models/sm-track-modular-half-pipe-1b1e585503d6435dae2dcb0d74679712",
      "title": "SM Track Modular Half Pipe"
    },
    "generator": "Sketchfab-12.68.0",
    "version": "2.0"
  },
  "bufferViews": [
    {
      "buffer": 0,
      "byteLength": 2544,
      "name": "floatBufferViews",
      "target": 34963
    },
    {
      "buffer": 0,
      "byteLength": 1416,
      "byteOffset": 2544,
      "byteStride": 8,
      "name": "floatBufferViews",
      "target": 34962
    },
    {
      "buffer": 0,
      "byteLength": 4248,
      "byteOffset": 3960,
      "byteStride": 12,
      "name": "floatBufferViews",
      "target": 34962
    },
    {
      "buffer": 0,
      "byteLength": 2832,
      "byteOffset": 8208,
      "byteStride": 16,
      "name": "floatBufferViews",
      "target": 34962
    }
  ],
  "buffers": [
    {
      "byteLength": 11040,
      "uri": "scene.bin"
    }
  ],
  "images": [
    {
      "uri": "textures/M_TrackModularHalfPipe_LOW_baseColor.jpeg"
    },
    {
      "uri": "textures/M_TrackModularHalfPipe_LOW_metallicRoughness.png"
    },
    {
      "uri": "textures/M_TrackModularHalfPipe_LOW_emissive.jpeg"
    },
    {
      "uri": "textures/M_TrackModularHalfPipe_LOW_normal.png"
    }
  ],
  "materials": [
    {
      "doubleSided": true,
      "emissiveFactor": [
        1.0,
        1.0,
        1.0
      ],
      "emissiveTexture": {
        "index": 2
      },
      "name": "M_TrackModularHalfPipe_LOW",
      "normalTexture": {
        "index": 3
      },
      "occlusionTexture": {
        "index": 1
      },
      "pbrMetallicRoughness": {
        "baseColorTexture": {
          "index": 0
        },
        "metallicRoughnessTexture": {
          "index": 1
        }
      }
    }
  ],
  "meshes": [
    {
      "name": "SM_TrackModularHalfPipe_LOW_M_TrackModularHalfPipe_LOW_0",
      "primitives": [
        {
          "attributes": {
            "NORMAL": 1,
            "POSITION": 0,
            "TANGENT": 2,
            "TEXCOORD_0": 3
          },
          "indices": 4,
          "material": 0,
          "mode": 4
        }
      ]
    }
  ],
  "nodes": [
    {
      "children": [
        1
      ],
      "matrix": [
        1.0,
        0.0,
        0.0,
        0.0,
        0.0,
        2.220446049250313e-16,
        -1.0,
        0.0,
        0.0,
        1.0,
        2.220446049250313e-16,
        0.0,
        0.0,
        0.0,
        0.0,
        1.0
      ],
      "name": "Sketchfab_model"
    },
    {
      "children": [
        2
      ],
      "matrix": [
        1.0,
        0.0,
        0.0,
        0.0,
        0.0,
        0.0,
        1.0,
        0.0,
        0.0,
        -1.0,
        0.0,
        0.0,
        0.0,
        0.0,
        0.0,
        1.0
      ],
      "name": "af436991c1ca41a4ab4a7a875877631f.fbx"
    },
    {
      "children": [
        3
      ],
      "name": "RootNode"
    },
    {
      "children": [
        4
      ],
      "matrix": [
        0.009999999776482582,
        0.0,
        0.0,
        0.0,
        0.0,
        0.009999999776482582,
        0.0,
        0.0,
        0.0,
        0.0,
        0.009999999776482582,
        0.0,
        0.0,
        0.0,
        0.0,
        1.0
      ],
      "name": "SM_TrackModularHalfPipe_LOW"
    },
    {
      "mesh": 0,
      "name": "SM_TrackModularHalfPipe_LOW_M_TrackModularHalfPipe_LOW_0"
    }
  ],
  "samplers": [
    {
      "magFilter": 9729,
      "minFilter": 9987,
      "wrapS": 10497,
      "wrapT": 10497
    }
  ],
  "scene": 0,
  "scenes": [
    {
      "name": "Sketchfab_Scene",
      "nodes": [
        0
      ]
    }
  ],
  "textures": [
    {
      "sampler": 0,
      "source": 0
    },
    {
      "sampler": 0,
      "source": 1
    },
    {
      "sampler": 0,
      "source": 2
    },
    {
      "sampler": 0,
      "source": 3
    }
  ]
}
